<svg width="370" height="51" viewBox="0 0 370 51" fill="none" xmlns="http://www.w3.org/2000/svg">
<path d="M177.428 45.7374C177.428 48.2617 175.369 50.3122 172.816 50.3122H5.52367C2.97024 50.3122 0.904999 48.2608 0.904999 45.7374V5.26796C0.904999 2.74502 2.97117 0.686584 5.52367 0.686584H172.814C175.368 0.686584 177.426 2.744 177.426 5.26796L177.428 45.7374Z" stroke="#555555"/>
<path d="M39.389 25.2212C39.3503 20.9507 42.9076 18.8731 43.0703 18.7764C41.0556 15.8574 37.933 15.4586 36.8356 15.4268C34.213 15.1525 31.669 16.9863 30.333 16.9863C28.9703 16.9863 26.913 15.4533 24.6956 15.4983C21.8423 15.5421 19.173 17.1837 17.709 19.733C14.6876 24.931 16.941 32.5696 19.8356 36.7712C21.2836 38.8289 22.9756 41.1265 25.1903 41.0457C27.357 40.9569 28.1663 39.673 30.781 39.673C33.3716 39.673 34.1316 41.0457 36.3903 40.994C38.7156 40.9569 40.1796 38.927 41.577 36.8507C43.2503 34.4922 43.9223 32.1695 43.949 32.0502C43.8943 32.0317 39.433 30.3397 39.389 25.2212Z" fill="#555555"/>
<path d="M35.1223 12.6629C36.2876 11.2147 37.0849 9.2444 36.8636 7.24497C35.1769 7.31917 33.0676 8.40435 31.8529 9.82077C30.7783 11.0689 29.8183 13.1147 30.0663 15.0386C31.9609 15.1791 33.9063 14.0886 35.1223 12.6629Z" fill="#555555"/>
<path d="M70.745 40.7503H67.717L66.0583 35.5708H60.293L58.713 40.7503H55.765L61.477 23.1171H65.005L70.745 40.7503ZM65.5583 33.3978L64.0583 28.7935C63.8997 28.3231 63.6023 27.2154 63.1637 25.4717H63.1103C62.9357 26.2216 62.6543 27.3293 62.2677 28.7935L60.7943 33.3978H65.5583Z" fill="#555555"/>
<path d="M85.4345 34.2365C85.4345 36.3989 84.8465 38.1081 83.6705 39.3629C82.6172 40.4799 81.3092 41.0377 79.7478 41.0377C78.0625 41.0377 76.8518 40.4361 76.1145 39.233H76.0612V45.9309H73.2185V32.2211C73.2185 30.8617 73.1825 29.4665 73.1132 28.0355H75.6132L75.7718 30.0508H75.8252C76.7732 28.5323 78.2118 27.7744 80.1425 27.7744C81.6518 27.7744 82.9118 28.3667 83.9198 29.5526C84.9305 30.7398 85.4345 32.3006 85.4345 34.2365ZM82.5385 34.3398C82.5385 33.1023 82.2585 32.082 81.6958 31.2791C81.0812 30.4417 80.2558 30.023 79.2212 30.023C78.5198 30.023 77.8825 30.2562 77.3132 30.7159C76.7425 31.1797 76.3692 31.7852 76.1945 32.5352C76.1065 32.885 76.0625 33.1712 76.0625 33.3964V35.5164C76.0625 36.4413 76.3478 37.2217 76.9185 37.859C77.4892 38.4963 78.2305 38.8143 79.1425 38.8143C80.2132 38.8143 81.0465 38.4036 81.6425 37.5847C82.2398 36.7646 82.5385 35.6834 82.5385 34.3398Z" fill="#555555"/>
<path d="M100.15 34.2365C100.15 36.3989 99.5622 38.1081 98.3849 39.3629C97.3329 40.4799 96.0249 41.0377 94.4635 41.0377C92.7782 41.0377 91.5675 40.4361 90.8315 39.233H90.7782V45.9309H87.9356V32.2211C87.9356 30.8617 87.8995 29.4665 87.8302 28.0355H90.3302L90.4889 30.0508H90.5422C91.4889 28.5323 92.9276 27.7744 94.8595 27.7744C96.3675 27.7744 97.6275 28.3667 98.6382 29.5526C99.6449 30.7398 100.15 32.3006 100.15 34.2365ZM97.2542 34.3398C97.2542 33.1023 96.9729 32.082 96.4102 31.2791C95.7955 30.4417 94.9729 30.023 93.9369 30.023C93.2342 30.023 92.5982 30.2562 92.0276 30.7159C91.4569 31.1797 91.0849 31.7852 90.9102 32.5352C90.8235 32.885 90.7782 33.1712 90.7782 33.3964V35.5164C90.7782 36.4413 91.0635 37.2217 91.6315 37.859C92.2022 38.495 92.9436 38.8143 93.8582 38.8143C94.9289 38.8143 95.7622 38.4036 96.3582 37.5847C96.9556 36.7646 97.2542 35.6834 97.2542 34.3398Z" fill="#555555"/>
<path d="M116.604 35.8053C116.604 37.3052 116.08 38.5255 115.028 39.4676C113.872 40.4971 112.262 41.0112 110.194 41.0112C108.285 41.0112 106.754 40.6455 105.596 39.9128L106.254 37.5583C107.502 38.3082 108.872 38.6845 110.364 38.6845C111.434 38.6845 112.268 38.4434 112.866 37.9637C113.462 37.4841 113.76 36.8401 113.76 36.0372C113.76 35.3217 113.514 34.7188 113.022 34.2299C112.533 33.7409 111.716 33.2865 110.574 32.8664C107.468 31.715 105.916 30.0283 105.916 27.8102C105.916 26.3607 106.46 25.1722 107.549 24.2473C108.634 23.3211 110.082 22.8587 111.893 22.8587C113.508 22.8587 114.849 23.1383 115.92 23.6961L115.209 25.999C114.209 25.4584 113.078 25.1881 111.813 25.1881C110.813 25.1881 110.032 25.4332 109.472 25.9208C108.998 26.3567 108.761 26.888 108.761 27.5174C108.761 28.2144 109.032 28.7907 109.576 29.2439C110.049 29.6626 110.909 30.1157 112.157 30.6047C113.684 31.2155 114.805 31.9297 115.526 32.7485C116.245 33.5647 116.604 34.5863 116.604 35.8053Z" fill="#555555"/>
<path d="M126.002 30.1556H122.869V36.3288C122.869 37.8989 123.421 38.6833 124.528 38.6833C125.036 38.6833 125.457 38.6396 125.79 38.5521L125.869 40.6973C125.309 40.9053 124.572 41.01 123.658 41.01C122.536 41.01 121.658 40.6695 121.025 39.9897C120.394 39.3087 120.077 38.1665 120.077 36.562V30.1529H118.21V28.0329H120.077V25.7049L122.869 24.8675V28.0329H126.002V30.1556Z" fill="#555555"/>
<path d="M140.14 34.2881C140.14 36.2425 139.577 37.8471 138.454 39.1018C137.277 40.3937 135.714 41.0377 133.766 41.0377C131.889 41.0377 130.394 40.4189 129.28 39.1813C128.165 37.9438 127.608 36.3816 127.608 34.4988C127.608 32.5285 128.181 30.9147 129.332 29.6599C130.48 28.4038 132.029 27.7757 133.977 27.7757C135.854 27.7757 137.365 28.3945 138.505 29.6334C139.596 30.8352 140.14 32.3867 140.14 34.2881ZM137.19 34.3795C137.19 33.2069 136.938 32.2012 136.428 31.3625C135.832 30.3476 134.98 29.8414 133.876 29.8414C132.733 29.8414 131.865 30.3489 131.269 31.3625C130.758 32.2026 130.506 33.2241 130.506 34.4325C130.506 35.6052 130.758 36.6108 131.269 37.4482C131.884 38.4632 132.742 38.9693 133.85 38.9693C134.936 38.9693 135.788 38.4526 136.402 37.4217C136.926 36.5671 137.19 35.5508 137.19 34.3795Z" fill="#555555"/>
<path d="M149.38 30.5198C149.098 30.4682 148.798 30.4417 148.484 30.4417C147.484 30.4417 146.71 30.8166 146.166 31.5679C145.693 32.2304 145.456 33.0678 145.456 34.0788V40.7502H142.614L142.641 32.0396C142.641 30.5742 142.605 29.2399 142.534 28.0368H145.01L145.114 30.4695H145.193C145.493 29.6334 145.966 28.9603 146.614 28.4555C147.248 28.001 147.932 27.7744 148.669 27.7744C148.932 27.7744 149.169 27.793 149.38 27.8261V30.5198Z" fill="#555555"/>
<path d="M162.093 33.7912C162.093 34.2974 162.06 34.724 161.989 35.0725H153.461C153.494 36.3286 153.906 37.2892 154.698 37.9517C155.417 38.544 156.346 38.8408 157.488 38.8408C158.75 38.8408 159.902 38.6407 160.938 38.2392L161.384 40.2002C160.173 40.7249 158.744 40.986 157.094 40.986C155.11 40.986 153.553 40.4056 152.42 39.2462C151.289 38.0869 150.722 36.53 150.722 34.5769C150.722 32.6597 151.249 31.063 152.304 29.7897C153.408 28.4303 154.9 27.7505 156.777 27.7505C158.621 27.7505 160.017 28.4303 160.965 29.7897C161.716 30.8696 162.093 32.2052 162.093 33.7912ZM159.382 33.0585C159.401 32.2211 159.216 31.4976 158.83 30.8868C158.338 30.1011 157.582 29.7089 156.565 29.7089C155.636 29.7089 154.88 30.0918 154.302 30.8603C153.829 31.4711 153.548 32.2039 153.461 33.0572H159.382V33.0585Z" fill="#555555"/>
<path d="M64.6181 12.2693C64.6181 13.8288 64.1474 15.0028 63.2074 15.7912C62.3367 16.5186 61.0994 16.883 59.4967 16.883C58.7021 16.883 58.0221 16.8485 57.4527 16.7796V8.25854C58.1954 8.13929 58.9954 8.07834 59.8594 8.07834C61.3861 8.07834 62.5367 8.40826 63.3127 9.06811C64.1821 9.81409 64.6181 10.8807 64.6181 12.2693ZM63.1447 12.3077C63.1447 11.2968 62.8754 10.5216 62.3367 9.98104C61.7981 9.44176 61.0114 9.17146 59.9754 9.17146C59.5354 9.17146 59.1607 9.20061 58.8501 9.26156V15.7395C59.0221 15.766 59.3367 15.7779 59.7941 15.7779C60.8634 15.7779 61.6887 15.4824 62.2701 14.8915C62.8514 14.3005 63.1447 13.4393 63.1447 12.3077Z" fill="#555555"/>
<path d="M72.4302 13.6313C72.4302 14.5919 72.1542 15.379 71.6022 15.9964C71.0235 16.6311 70.2569 16.9478 69.2995 16.9478C68.3769 16.9478 67.6422 16.6443 67.0942 16.0348C66.5476 15.4267 66.2742 14.6595 66.2742 13.7346C66.2742 12.7674 66.5555 11.9737 67.1209 11.3576C67.6862 10.7415 68.4462 10.4327 69.4035 10.4327C70.3262 10.4327 71.0675 10.7362 71.6289 11.3443C72.1622 11.9353 72.4302 12.6985 72.4302 13.6313ZM70.9809 13.6763C70.9809 13.1 70.8555 12.6057 70.6062 12.1937C70.3129 11.6955 69.8956 11.4464 69.3529 11.4464C68.7916 11.4464 68.3649 11.6955 68.0715 12.1937C67.8209 12.6057 67.6969 13.1079 67.6969 13.7015C67.6969 14.2779 67.8222 14.7721 68.0715 15.1842C68.3742 15.6824 68.7955 15.9315 69.3395 15.9315C69.8729 15.9315 70.2915 15.6784 70.5929 15.1709C70.8515 14.7509 70.9809 14.2527 70.9809 13.6763Z" fill="#555555"/>
<path d="M82.9046 10.5601L80.9379 16.8061H79.6579L78.8432 14.0939C78.6366 13.4168 78.4686 12.7437 78.3379 12.0759H78.3126C78.1912 12.7622 78.0232 13.434 77.8072 14.0939L76.9419 16.8061H75.6472L73.7979 10.5601H75.2339L75.9446 13.5294C76.1166 14.2317 76.2579 14.9008 76.3712 15.5341H76.3966C76.5006 15.0121 76.6726 14.3469 76.9152 13.5427L77.8072 10.5614H78.9459L79.8006 13.4791C80.0072 14.1906 80.1752 14.8756 80.3046 15.5355H80.3432C80.4379 14.8928 80.5806 14.2078 80.7699 13.4791L81.5326 10.5614H82.9046V10.5601Z" fill="#555555"/>
<path d="M90.1488 16.806H88.7515V13.2285C88.7515 12.1261 88.3302 11.5749 87.4848 11.5749C87.0702 11.5749 86.7355 11.726 86.4755 12.0294C86.2182 12.3328 86.0875 12.6906 86.0875 13.1V16.8047H84.6902V12.3448C84.6902 11.7962 84.6728 11.2013 84.6395 10.5573H85.8675L85.9328 11.5339H85.9715C86.1342 11.2304 86.3768 10.98 86.6955 10.7799C87.0742 10.5467 87.4982 10.4288 87.9622 10.4288C88.5488 10.4288 89.0368 10.617 89.4248 10.9946C89.9075 11.457 90.1488 12.1473 90.1488 13.0642V16.806Z" fill="#555555"/>
<path d="M94.0022 16.8061H92.6062V7.69405H94.0022V16.8061Z" fill="#555555"/>
<path d="M102.229 13.6313C102.229 14.5919 101.953 15.379 101.401 15.9964C100.822 16.6311 100.054 16.9478 99.098 16.9478C98.174 16.9478 97.4393 16.6443 96.8926 16.0348C96.3459 15.4267 96.0726 14.6595 96.0726 13.7346C96.0726 12.7674 96.354 11.9737 96.9193 11.3576C97.4846 10.7415 98.2446 10.4327 99.2006 10.4327C100.125 10.4327 100.865 10.7362 101.427 11.3443C101.961 11.9353 102.229 12.6985 102.229 13.6313ZM100.778 13.6763C100.778 13.1 100.653 12.6057 100.403 12.1937C100.111 11.6955 99.6926 11.4464 99.1513 11.4464C98.5886 11.4464 98.1619 11.6955 97.8699 12.1937C97.6193 12.6057 97.4953 13.1079 97.4953 13.7015C97.4953 14.2779 97.6206 14.7721 97.8699 15.1842C98.1726 15.6824 98.594 15.9315 99.138 15.9315C99.6713 15.9315 100.089 15.6784 100.39 15.1709C100.65 14.7509 100.778 14.2527 100.778 13.6763Z" fill="#555555"/>
<path d="M108.992 16.806H107.737L107.633 16.0865H107.594C107.165 16.6602 106.553 16.9478 105.758 16.9478C105.165 16.9478 104.685 16.7583 104.324 16.382C103.996 16.0401 103.832 15.6148 103.832 15.11C103.832 14.3468 104.152 13.7651 104.796 13.3623C105.438 12.9595 106.342 12.7621 107.506 12.7714V12.6548C107.506 11.8319 107.072 11.4212 106.201 11.4212C105.581 11.4212 105.034 11.5762 104.562 11.8836L104.278 10.972C104.862 10.6129 105.584 10.4327 106.434 10.4327C108.077 10.4327 108.901 11.294 108.901 13.0165V15.3167C108.901 15.9408 108.932 16.4376 108.992 16.806ZM107.541 14.6595V13.6962C106 13.6697 105.229 14.0897 105.229 14.955C105.229 15.2809 105.317 15.5247 105.497 15.6877C105.677 15.8507 105.906 15.9315 106.18 15.9315C106.486 15.9315 106.773 15.8348 107.034 15.6426C107.297 15.4492 107.458 15.2041 107.518 14.9033C107.533 14.8357 107.541 14.7536 107.541 14.6595Z" fill="#555555"/>
<path d="M116.931 16.8061H115.691L115.626 15.803H115.587C115.191 16.5662 114.517 16.9478 113.569 16.9478C112.811 16.9478 112.181 16.6524 111.681 16.0614C111.181 15.4705 110.931 14.7033 110.931 13.7612C110.931 12.7502 111.202 11.9314 111.746 11.306C112.273 10.723 112.918 10.4315 113.686 10.4315C114.53 10.4315 115.121 10.7137 115.457 11.2795H115.483V7.69405H116.882V15.1233C116.882 15.7315 116.898 16.292 116.931 16.8061ZM115.483 14.172V13.1305C115.483 12.9503 115.47 12.8046 115.445 12.6933C115.366 12.3594 115.197 12.0785 114.939 11.8519C114.679 11.6253 114.366 11.5114 114.005 11.5114C113.483 11.5114 113.075 11.7167 112.775 12.1288C112.478 12.5409 112.327 13.0669 112.327 13.7095C112.327 14.327 112.47 14.8278 112.757 15.2134C113.059 15.6242 113.467 15.8295 113.978 15.8295C114.437 15.8295 114.803 15.6586 115.082 15.3154C115.351 14.9988 115.483 14.6172 115.483 14.172Z" fill="#555555"/>
<path d="M128.882 13.6313C128.882 14.5919 128.606 15.379 128.054 15.9964C127.475 16.6311 126.71 16.9478 125.751 16.9478C124.83 16.9478 124.095 16.6443 123.546 16.0348C122.999 15.4267 122.726 14.6595 122.726 13.7346C122.726 12.7674 123.007 11.9737 123.573 11.3576C124.138 10.7415 124.898 10.4327 125.857 10.4327C126.778 10.4327 127.521 10.7362 128.081 11.3443C128.614 11.9353 128.882 12.6985 128.882 13.6313ZM127.434 13.6763C127.434 13.1 127.309 12.6057 127.059 12.1937C126.765 11.6955 126.349 11.4464 125.805 11.4464C125.245 11.4464 124.818 11.6955 124.523 12.1937C124.273 12.6057 124.149 13.1079 124.149 13.7015C124.149 14.2779 124.274 14.7721 124.523 15.1842C124.826 15.6824 125.247 15.9315 125.791 15.9315C126.325 15.9315 126.745 15.6784 127.046 15.1709C127.303 14.7509 127.434 14.2527 127.434 13.6763Z" fill="#555555"/>
<path d="M136.396 16.806H135V13.2285C135 12.1261 134.578 11.5749 133.732 11.5749C133.317 11.5749 132.982 11.726 132.724 12.0294C132.465 12.3328 132.336 12.6906 132.336 13.1V16.8047H130.937V12.3448C130.937 11.7962 130.921 11.2013 130.888 10.5573H132.114L132.18 11.5339H132.218C132.382 11.2304 132.625 10.98 132.942 10.7799C133.322 10.5467 133.745 10.4288 134.21 10.4288C134.796 10.4288 135.284 10.617 135.671 10.9946C136.155 11.457 136.396 12.1473 136.396 13.0642V16.806Z" fill="#555555"/>
<path d="M145.8 11.6002H144.261V14.6344C144.261 15.4056 144.534 15.7911 145.076 15.7911C145.326 15.7911 145.534 15.7699 145.698 15.7262L145.734 16.7796C145.458 16.8829 145.096 16.9346 144.649 16.9346C144.097 16.9346 143.668 16.7677 143.357 16.4338C143.045 16.0999 142.89 15.5381 142.89 14.7497V11.6002H141.972V10.56H142.89V9.41523L144.26 9.00448V10.5587H145.798V11.6002H145.8Z" fill="#555555"/>
<path d="M153.197 16.8061H151.798V13.2551C151.798 12.1354 151.377 11.575 150.533 11.575C149.885 11.575 149.442 11.8996 149.199 12.5488C149.158 12.6853 149.134 12.8523 149.134 13.0484V16.8047H147.738V7.69405H149.134V11.4584H149.161C149.601 10.7733 150.231 10.4315 151.049 10.4315C151.627 10.4315 152.106 10.6196 152.486 10.9973C152.959 11.4676 153.197 12.1672 153.197 13.0921V16.8061Z" fill="#555555"/>
<path d="M160.827 13.3876C160.827 13.6367 160.809 13.8461 160.775 14.017H156.585C156.603 14.6345 156.803 15.1049 157.191 15.4308C157.546 15.7223 158.003 15.8681 158.563 15.8681C159.183 15.8681 159.749 15.77 160.258 15.5726L160.477 16.5372C159.881 16.7942 159.179 16.9227 158.367 16.9227C157.394 16.9227 156.627 16.6379 156.073 16.0681C155.515 15.4984 155.239 14.7339 155.239 13.7745C155.239 12.8325 155.497 12.0481 156.015 11.4227C156.557 10.7549 157.289 10.421 158.213 10.421C159.117 10.421 159.803 10.7549 160.267 11.4227C160.642 11.9527 160.827 12.6085 160.827 13.3876ZM159.494 13.0286C159.505 12.6165 159.413 12.2614 159.223 11.9619C158.981 11.5764 158.611 11.3829 158.111 11.3829C157.655 11.3829 157.283 11.5711 156.999 11.9487C156.767 12.2495 156.63 12.6085 156.585 13.0286H159.494Z" fill="#555555"/>
<path d="M364.881 50.3166H212.991C210.482 50.3166 208.428 48.2621 208.428 45.7536V5.24961C208.428 2.7411 210.482 0.686607 212.991 0.686607H364.881C367.389 0.686607 369.444 2.7411 369.444 5.24961V45.7536C369.444 48.2621 367.389 50.3166 364.881 50.3166Z" stroke="#555555"/>
<path fill-rule="evenodd" clip-rule="evenodd" d="M220.332 24.9953V11.7049C220.332 10.9455 220.965 10.3126 221.598 10.3126C222.231 10.3126 222.484 10.4392 222.864 10.6923L247.292 24.1093C247.799 24.3624 248.052 24.7421 248.052 25.1219C248.052 25.5016 247.799 25.8813 247.292 26.1345L222.864 39.5514C222.61 39.678 222.231 39.9311 221.598 39.9311C220.965 39.9311 220.332 39.2983 220.332 38.5388V24.9953Z" fill="#555555" stroke="#FAFAFA"/>
<path fill-rule="evenodd" clip-rule="evenodd" d="M236.154 25.1219L221.345 10.3126C221.471 10.3126 221.471 10.3126 221.598 10.3126C222.231 10.3126 222.484 10.4392 222.863 10.6923L240.837 20.5652L236.154 25.1219Z" fill="#555555" stroke="#FAFAFA"/>
<path fill-rule="evenodd" clip-rule="evenodd" d="M240.711 29.5521L236.154 24.9954L240.837 20.3121L247.292 23.8562C247.799 24.1093 248.052 24.4891 248.052 24.8688C248.052 25.2485 247.799 25.6282 247.292 25.8814L240.711 29.5521Z" fill="#555555" stroke="#FAFAFA"/>
<path fill-rule="evenodd" clip-rule="evenodd" d="M221.471 39.678L236.154 24.9953L240.711 29.552L222.864 39.2983C222.484 39.5514 222.231 39.678 221.471 39.678C221.598 39.678 221.598 39.678 221.471 39.678Z" fill="#555555"/>
<path d="M221.471 39.678L236.154 24.9953L240.711 29.552L222.864 39.2983C222.484 39.5514 222.231 39.678 221.471 39.678ZM221.471 39.678C221.598 39.678 221.598 39.678 221.471 39.678Z" stroke="#FAFAFA"/>
<path fill-rule="evenodd" clip-rule="evenodd" d="M297.923 43.0955C297.29 42.5892 296.783 41.7032 296.53 41.1969L298.555 40.3109C298.682 40.564 298.935 40.9437 299.188 41.3235C299.695 41.8298 300.454 42.3361 301.213 42.3361C301.973 42.3361 302.859 41.9563 303.365 41.3235C303.745 40.6906 303.998 40.0577 303.998 39.1717V38.4122C302.479 40.3109 299.315 40.0577 297.543 38.0325C295.644 36.0073 295.644 32.5898 297.543 30.5646C299.441 28.666 302.226 28.4128 303.872 30.1849V29.2988H306.023V38.792C306.023 41.1969 305.137 42.5892 303.998 43.4752C303.239 44.1081 302.099 44.3613 301.087 44.3613C299.948 44.2347 298.809 43.855 297.923 43.0955ZM350.957 43.6018L353.109 38.5388L349.312 29.8051H351.464L354.122 36.0073L356.78 29.8051H358.932L353.109 43.6018H350.957ZM340.705 38.792C340.072 38.1591 339.819 37.2731 339.819 36.387C339.819 35.6276 340.072 34.8681 340.578 34.3618C341.464 33.4758 342.73 33.0961 344.122 33.0961C345.008 33.0961 345.768 33.2227 346.401 33.6024C346.401 32.0835 345.135 31.4506 344.122 31.4506C343.236 31.4506 342.35 31.9569 341.971 32.8429L340.072 32.0835C340.452 31.1975 341.464 29.552 343.996 29.552C345.262 29.552 346.527 29.9317 347.287 30.8177C348.046 31.7038 348.299 32.7164 348.299 34.1087V39.4248H346.148V38.5388C345.894 38.9185 345.388 39.1717 345.008 39.4248C344.502 39.678 343.869 39.8046 343.236 39.8046C342.477 39.678 341.338 39.4248 340.705 38.792ZM273.24 34.2353C273.24 31.7038 275.139 28.9191 278.557 28.9191C281.847 28.9191 283.873 31.7038 283.873 34.2353C283.873 36.7668 281.974 39.5514 278.557 39.5514C275.139 39.5514 273.24 36.7668 273.24 34.2353ZM284.632 34.2353C284.632 31.7038 286.531 28.9191 289.948 28.9191C293.239 28.9191 295.264 31.7038 295.264 34.2353C295.264 36.7668 293.366 39.5514 289.948 39.5514C286.657 39.5514 284.632 36.7668 284.632 34.2353ZM258.937 37.0199C255.773 33.8555 255.9 28.666 259.064 25.375C260.709 23.7295 262.735 22.9701 264.886 22.9701C266.912 22.9701 268.937 23.7295 270.456 25.2484L268.937 26.8939C266.658 24.6156 262.988 24.7421 260.836 27.0205C258.558 29.4254 258.558 33.0961 260.836 35.501C263.114 37.9059 266.912 38.0325 269.19 35.6276C269.949 34.8681 270.203 33.8555 270.329 32.8429H265.013V30.5646H272.481C272.608 31.0709 272.608 31.7038 272.608 32.3366C272.608 34.2353 271.848 36.1339 270.582 37.3996C269.19 38.792 267.165 39.5514 265.14 39.5514C262.861 39.4248 260.583 38.6654 258.937 37.0199ZM312.479 37.9059C310.58 35.8807 310.58 32.4632 312.479 30.3114C314.377 28.2862 317.542 28.2862 319.314 30.3114C319.947 30.9443 320.326 31.8303 320.706 32.7164L313.744 35.6276C314.124 36.5136 315.01 37.2731 316.276 37.2731C317.415 37.2731 318.175 36.8933 318.934 35.7542L320.833 37.0199C320.579 37.2731 320.326 37.5262 320.2 37.7794C318.048 39.9311 314.377 39.9311 312.479 37.9059ZM325.642 39.4248V25.375H330.199C332.857 25.375 335.009 27.2736 335.009 29.552C335.009 31.8303 333.11 33.729 330.705 33.729H327.921V39.2983H325.642V39.4248ZM336.275 39.4248V25.375H338.427V39.4248H336.275ZM307.669 39.1717V23.4764H309.947V39.1717H307.669ZM346.274 35.2479C345.768 34.8681 345.008 34.7416 344.249 34.7416C342.73 34.7416 341.844 35.501 341.844 36.387C341.844 37.2731 342.73 37.7794 343.616 37.7794C344.882 37.7794 346.274 36.7668 346.274 35.2479ZM281.468 34.2353C281.468 32.7164 280.455 31.0709 278.557 31.0709C276.658 31.0709 275.645 32.7164 275.645 34.2353C275.645 35.7542 276.658 37.3996 278.557 37.3996C280.329 37.3996 281.468 35.7542 281.468 34.2353ZM292.86 34.2353C292.86 32.7164 291.847 31.0709 289.948 31.0709C288.05 31.0709 287.037 32.7164 287.037 34.2353C287.037 35.7542 288.05 37.3996 289.948 37.3996C291.847 37.3996 292.86 35.7542 292.86 34.2353ZM304.125 35.1213C304.125 34.9947 304.125 34.8681 304.251 34.7416C304.251 34.615 304.251 34.3618 304.251 34.2353C304.251 34.1087 304.251 33.8555 304.251 33.729V33.6024C304.251 33.4758 304.125 33.2227 304.125 33.0961C303.745 31.8303 302.606 30.9443 301.467 30.9443C299.948 30.9443 298.682 32.4632 298.682 34.1087C298.682 35.8807 299.948 37.2731 301.593 37.2731C302.606 37.3996 303.618 36.5136 304.125 35.1213ZM313.365 33.9821L318.048 31.9569C317.542 31.0709 316.782 30.8177 316.149 30.8177C314.251 30.9443 313.111 32.9695 313.365 33.9821ZM332.731 29.6786C332.731 28.4128 331.718 27.5268 330.326 27.5268H327.794V31.9569H330.452C331.718 31.9569 332.731 30.9443 332.731 29.6786Z" fill="#555555"/>
<path fill-rule="evenodd" clip-rule="evenodd" d="M352.603 41.0703H352.476V40.9437H352.603H352.476V41.0703H352.603Z" fill="white"/>
<path fill-rule="evenodd" clip-rule="evenodd" d="M352.856 41.0703C352.856 40.9437 352.856 40.9437 352.856 41.0703C352.729 40.9437 352.729 40.9437 352.856 41.0703C352.729 41.0703 352.729 41.0703 352.856 41.0703ZM352.856 40.9437C352.856 41.0703 352.856 41.0703 352.856 40.9437C352.856 41.0703 352.729 41.0703 352.856 40.9437C352.729 40.9437 352.856 40.9437 352.856 40.9437Z" fill="white"/>
<path fill-rule="evenodd" clip-rule="evenodd" d="M352.983 40.9437H352.856H352.983V41.0703V40.9437Z" fill="white"/>
<path d="M257.165 12.9707C257.165 10.6923 258.811 9.29999 260.836 9.29999C262.228 9.29999 263.114 9.93286 263.747 10.8189L262.735 11.4518C262.355 10.9455 261.722 10.5657 260.836 10.5657C259.444 10.5657 258.431 11.5783 258.431 13.0972C258.431 14.6161 259.444 15.6287 260.836 15.6287C261.596 15.6287 262.228 15.249 262.482 14.9959V13.8567H260.456V12.7175H263.874V15.3756C263.241 16.135 262.228 16.6413 260.963 16.6413C258.811 16.6413 257.165 15.1224 257.165 12.9707Z" fill="#555555"/>
<path d="M265.393 16.5148V9.42657H270.203V10.5657H266.532V12.3378H270.076V13.477H266.532V15.5022H270.203V16.6413L265.393 16.5148Z" fill="#555555"/>
<path d="M273.747 16.5148V10.5657H271.595V9.42657H277.164V10.5657H275.012V16.5148H273.747Z" fill="#555555"/>
<path d="M281.468 16.5148V9.42657H282.733V16.5148H281.468Z" fill="#555555"/>
<path d="M286.151 16.5148V10.5657H283.999V9.42657H289.568V10.5657H287.417V16.5148H286.151Z" fill="#555555"/>
<path d="M293.619 12.9707C293.619 10.8189 295.138 9.29999 297.29 9.29999C299.441 9.29999 300.96 10.8189 300.96 12.9707C300.96 15.1224 299.441 16.6413 297.29 16.6413C295.138 16.6413 293.619 14.9959 293.619 12.9707ZM299.568 12.9707C299.568 11.4518 298.682 10.4392 297.163 10.4392C295.771 10.4392 294.758 11.5783 294.758 12.9707C294.758 14.4896 295.644 15.5022 297.163 15.5022C298.682 15.5022 299.568 14.363 299.568 12.9707Z" fill="#555555"/>
<path d="M307.289 16.5148L303.618 11.4518V16.5148H302.353V9.42657H303.618L307.289 14.363V9.42657H308.555V16.5148H307.289Z" fill="#555555"/>
</svg>
