<svg width="128" height="57" viewBox="0 0 128 57" fill="none" xmlns="http://www.w3.org/2000/svg">
<path d="M116.905 24.468C118.205 27.268 118.305 30.668 117.805 33.668C117.705 34.468 117.505 35.268 117.205 35.968C116.905 36.768 116.605 37.468 116.205 38.168C115.405 39.568 114.405 40.868 113.305 41.968C112.705 42.568 112.205 43.0681 111.505 43.5681C111.205 43.868 110.905 44.068 110.605 44.268C110.405 44.368 110.305 44.4681 110.105 44.5681C109.905 44.6681 109.805 44.768 109.605 44.868L109.105 45.168C108.905 45.268 108.805 45.368 108.605 45.468C108.305 45.668 107.905 45.768 107.505 45.968C107.305 46.068 107.105 46.068 107.005 46.168C106.805 46.268 106.605 46.268 106.505 46.368L105.905 46.5681L105.305 46.768L105.005 46.868C104.905 46.868 104.805 46.868 104.705 46.968L104.105 47.0681C103.905 47.0681 103.705 47.168 103.505 47.168C103.305 47.168 103.105 47.268 102.905 47.268L102.305 47.368C102.105 47.368 101.905 47.368 101.705 47.468C101.305 47.468 100.905 47.4681 100.505 47.5681C99.005 47.5681 97.405 47.368 95.905 47.0681V46.868C96.605 46.9681 97.405 46.968 98.105 46.968C98.805 46.968 99.605 46.9681 100.305 46.868C101.805 46.668 103.205 46.368 104.505 45.768L105.005 45.5681L105.505 45.368C105.705 45.268 105.805 45.168 106.005 45.168C106.205 45.168 106.305 44.9681 106.505 44.868C106.805 44.668 107.105 44.468 107.405 44.268C107.505 44.168 107.705 44.068 107.905 43.968L108.305 43.668C108.405 43.568 108.605 43.4681 108.705 43.368C108.805 43.268 109.005 43.1681 109.105 43.0681C109.405 42.868 109.705 42.5681 109.905 42.368C110.405 41.868 110.905 41.368 111.405 40.768C112.305 39.668 113.005 38.468 113.605 37.168C113.705 36.968 113.705 36.868 113.805 36.668C113.905 36.468 113.905 36.368 114.005 36.168C114.005 36.068 114.105 35.968 114.105 35.968L114.205 35.768C114.305 35.568 114.305 35.468 114.405 35.268C114.605 34.568 114.805 33.968 115.005 33.268L115.105 32.968V32.868V32.768L115.205 32.268L115.305 31.768C115.305 31.568 115.405 31.368 115.405 31.268C115.505 30.568 115.705 29.868 115.805 29.168C116.005 27.668 116.105 26.168 116.105 24.768L116.905 24.468Z" fill="url(#paint0_linear)"/>
<path d="M109.405 13.368C109.905 13.368 110.405 13.468 110.805 13.568C111.005 13.668 111.205 13.768 111.405 13.868C111.605 13.968 111.805 14.068 112.005 14.168C112.205 14.268 112.305 14.468 112.505 14.568C112.605 14.768 112.805 14.868 112.905 15.068C113.005 15.268 113.105 15.468 113.205 15.668C113.305 15.868 113.405 16.068 113.505 16.268C114.005 16.968 114.405 17.768 114.805 18.468C115.205 19.268 115.505 20.068 115.705 20.868L115.505 20.968C115.005 20.368 114.405 19.668 113.805 19.168C113.205 18.568 112.605 18.068 112.005 17.468C111.705 17.168 111.405 16.968 111.005 16.768C110.805 16.668 110.705 16.568 110.505 16.368C110.405 16.268 110.205 16.068 110.105 15.968C109.905 15.668 109.605 15.268 109.505 14.868C109.305 14.468 109.105 13.968 109.005 13.568L109.405 13.368Z" fill="url(#paint1_linear)"/>
<path d="M105.505 10.5681C99.905 7.96805 93.505 7.76805 87.705 9.96805C78.105 13.6681 72.305 23.5681 73.905 33.8681C74.005 34.8681 74.305 35.7681 74.505 36.7681L75.005 38.1681V38.2681L75.105 38.4681C75.105 38.5681 75.205 38.6681 75.205 38.7681C75.305 38.9681 75.405 39.2681 75.505 39.4681C76.305 41.2681 77.305 42.9681 78.505 44.5681C79.705 46.1681 81.105 47.5681 82.605 48.7681C84.105 49.9681 85.805 50.9681 87.605 51.7681C89.405 52.5681 91.305 53.1681 93.205 53.5681C95.105 53.9681 97.105 54.1681 99.105 54.1681C100.105 54.1681 101.105 54.0681 102.005 53.9681C103.005 53.8681 103.905 53.6681 104.905 53.4681C106.805 53.0681 108.705 52.3681 110.405 51.5681C121.405 46.2681 127.405 34.0681 124.705 22.1681C123.805 18.2681 122.105 14.6681 119.605 11.5681C118.405 10.0681 116.905 8.66805 115.405 7.36805C113.805 6.16805 112.105 5.06805 110.405 4.16805C106.805 2.36805 102.805 1.36805 98.805 1.26805C96.805 1.16805 94.805 1.36805 92.805 1.76805C90.805 2.16805 88.905 2.76805 87.005 3.56805C85.105 4.36805 83.405 5.46805 81.805 6.66805C80.205 7.86805 78.805 9.36805 77.605 11.0681C78.705 9.26805 80.005 7.66805 81.605 6.36805C83.205 4.96805 84.905 3.86805 86.805 2.96805C90.505 1.06805 94.705 0.0680542 98.905 0.0680542C103.105 0.0680542 107.305 0.968054 111.105 2.66805C113.005 3.56805 114.905 4.66805 116.505 5.86805C118.205 7.16805 119.705 8.56806 121.105 10.2681C122.505 11.8681 123.705 13.6681 124.605 15.5681C125.605 17.4681 126.305 19.4681 126.805 21.5681C130.405 36.7681 121.005 52.0681 105.805 55.6681C105.705 55.6681 105.505 55.7681 105.405 55.7681C103.305 56.2681 101.205 56.4681 99.005 56.4681C96.905 56.4681 94.705 56.2681 92.605 55.7681C90.505 55.368 88.505 54.6681 86.505 53.7681C84.605 52.868 82.705 51.7681 81.105 50.3681C79.405 49.0681 77.905 47.4681 76.705 45.7681C75.405 44.0681 74.405 42.1681 73.505 40.2681C73.405 40.0681 73.305 39.7681 73.205 39.5681C73.205 39.4681 73.105 39.3681 73.105 39.1681L73.005 38.9681V38.8681V38.7681L72.605 37.1681C72.305 36.1681 72.105 35.0681 72.005 34.0681C70.805 25.4681 74.605 16.8681 81.805 11.8681C87.005 8.26805 93.505 6.96805 99.705 8.36805C101.705 8.76805 103.605 9.56805 105.505 10.5681Z" fill="url(#paint2_linear)"/>
<path d="M17.705 29.6681V36.4681C17.705 37.4681 17.005 38.1681 16.005 38.1681C15.305 38.1681 14.305 37.4681 14.305 36.4681C12.805 37.768 11.105 38.1681 9.205 38.1681C4.305 38.1681 0.404999 34.5681 0.404999 29.5681C0.404999 24.6681 4.305 20.7681 9.205 20.7681C14.105 20.8681 17.705 24.7681 17.705 29.6681ZM14.305 29.6681C14.305 26.7681 12.105 24.2681 9.205 24.2681C6.305 24.2681 3.805 26.7681 3.805 29.6681C3.805 32.5681 6.305 34.768 9.205 34.768C12.105 34.768 14.305 32.5681 14.305 29.6681Z" fill="#555555"/>
<path d="M32.205 33.0681C32.205 34.0681 31.505 38.268 26.405 38.268C24.005 38.268 21.105 37.168 20.205 34.768C20.105 34.668 20.105 34.468 20.105 34.268C20.105 33.368 20.905 32.5681 21.905 32.5681C22.405 32.5681 22.905 32.768 23.205 33.268C24.005 34.368 24.805 34.8681 26.305 34.8681C28.505 34.8681 28.705 33.3681 28.705 33.0681C28.705 31.8681 27.505 31.368 25.805 31.268C23.705 31.068 20.005 29.8681 20.005 26.0681C20.005 22.7681 22.805 20.7681 25.905 20.7681C27.005 20.7681 28.205 21.0681 29.205 21.5681C29.505 21.7681 32.105 22.8681 32.105 24.9681C32.005 25.8681 31.305 26.6681 30.305 26.6681C29.505 26.6681 29.105 26.068 28.705 25.4681C28.205 24.4681 26.805 24.1681 25.805 24.1681C24.505 24.1681 23.405 24.8681 23.405 26.0681C23.405 28.5681 27.205 26.9681 30.005 29.1681C31.405 30.1681 32.205 31.6681 32.205 33.0681Z" fill="#555555"/>
<path d="M37.805 36.5681V45.268C37.805 46.168 37.005 46.968 36.105 46.968C35.105 46.968 34.405 46.168 34.405 45.268V29.668C34.405 24.868 38.305 20.968 43.105 20.968C47.905 20.968 51.805 24.868 51.805 29.668C51.805 34.468 47.905 38.368 43.105 38.368C41.105 38.368 39.305 37.6681 37.805 36.5681ZM37.805 29.668C37.805 32.568 40.205 34.968 43.105 34.968C46.005 34.968 48.405 32.568 48.405 29.668C48.405 26.768 46.005 24.368 43.105 24.368C40.205 24.368 37.805 26.768 37.805 29.668Z" fill="#555555"/>
<path d="M54.305 16.868C54.005 16.568 53.805 16.068 53.805 15.668C53.805 15.168 54.005 14.768 54.305 14.468C54.605 14.168 55.105 13.968 55.505 13.968C56.005 13.968 56.405 14.168 56.705 14.468C57.005 14.768 57.205 15.268 57.205 15.668C57.205 16.168 57.005 16.568 56.705 16.868C56.405 17.168 55.905 17.368 55.505 17.368C55.105 17.368 54.605 17.168 54.305 16.868ZM53.805 36.5681V22.568C53.805 21.668 54.605 20.868 55.505 20.868C56.405 20.868 57.205 21.668 57.205 22.568V36.5681C57.205 37.5681 56.405 38.268 55.505 38.268C54.605 38.268 53.805 37.4681 53.805 36.5681Z" fill="#555555"/>
<path d="M69.705 22.4681C69.705 23.3681 68.905 24.1681 68.005 24.1681C65.105 24.1681 62.705 26.568 62.705 29.4681V36.4681C62.705 37.368 61.905 38.1681 61.005 38.1681C60.005 38.1681 59.305 37.368 59.305 36.4681V29.4681C59.305 24.668 63.205 20.7681 68.005 20.7681C68.905 20.7681 69.705 21.5681 69.705 22.4681Z" fill="#555555"/>
<path d="M72.305 16.868C72.005 16.568 71.805 16.068 71.805 15.668C71.805 15.168 72.005 14.768 72.305 14.468C72.605 14.168 73.105 13.968 73.505 13.968C74.005 13.968 74.405 14.168 74.705 14.468C75.005 14.768 75.205 15.268 75.205 15.668C75.205 16.168 75.005 16.568 74.705 16.868C74.405 17.168 73.905 17.368 73.505 17.368C73.105 17.368 72.605 17.168 72.305 16.868ZM71.805 36.5681V22.568C71.805 21.668 72.605 20.868 73.505 20.868C74.405 20.868 75.205 21.668 75.205 22.568V36.5681C75.205 37.5681 74.405 38.268 73.505 38.268C72.505 38.268 71.805 37.4681 71.805 36.5681Z" fill="#555555"/>
<path d="M77.205 29.568C77.205 24.768 81.105 20.868 85.905 20.868C89.005 20.868 91.905 22.568 93.505 25.168C94.005 25.968 93.705 27.068 92.905 27.568C92.105 28.068 91.005 27.768 90.505 26.968C89.605 25.368 87.805 24.368 85.905 24.368C83.005 24.368 80.605 26.768 80.605 29.668C80.605 32.568 83.005 34.968 85.905 34.968C87.705 34.968 89.405 34.068 90.305 32.568C90.805 31.768 91.905 31.568 92.705 32.068C93.505 32.568 93.705 33.668 93.205 34.468C91.605 36.968 88.905 38.468 85.905 38.468C81.105 38.268 77.205 34.368 77.205 29.568Z" fill="#555555"/>
<path d="M109.205 35.4681C109.805 36.2681 109.705 37.2681 108.905 37.8681C108.605 38.0681 108.205 38.2681 107.905 38.2681C107.405 38.2681 106.905 38.0681 106.505 37.5681L102.405 32.3681L98.305 37.5681C98.005 37.9681 97.505 38.2681 96.905 38.2681C96.505 38.2681 96.205 38.1681 95.905 37.8681C95.105 37.2681 95.005 36.2681 95.605 35.4681L100.205 29.5681L95.605 23.6681C95.005 22.8681 95.105 21.8681 95.905 21.2681C96.605 20.6681 97.705 20.7681 98.305 21.5681L102.405 26.7681L106.505 21.5681C107.105 20.7681 108.205 20.6681 108.905 21.2681C109.705 21.8681 109.805 22.9681 109.205 23.6681L104.605 29.5681L109.205 35.4681Z" fill="#555555"/>
<defs>
<linearGradient id="paint0_linear" x1="96.2154" y1="36.018" x2="118.125" y2="36.018" gradientUnits="userSpaceOnUse">
<stop offset="0.2703" stop-color="#F05028"/>
<stop offset="1" stop-color="#FF6516"/>
</linearGradient>
<linearGradient id="paint1_linear" x1="108.582" y1="17.168" x2="116.795" y2="17.168" gradientUnits="userSpaceOnUse">
<stop offset="0.46" stop-color="#00E6FF"/>
<stop offset="0.663" stop-color="#00E0FF"/>
<stop offset="1" stop-color="#00DCFF"/>
</linearGradient>
<linearGradient id="paint2_linear" x1="71.7846" y1="28.2681" x2="127.736" y2="28.2681" gradientUnits="userSpaceOnUse">
<stop offset="0.2378" stop-color="#F05028"/>
<stop offset="1" stop-color="#FF6516"/>
</linearGradient>
</defs>
</svg>
