<svg width="323" height="53" viewBox="0 0 323 53" fill="none" xmlns="http://www.w3.org/2000/svg">
<path d="M4.49566 0.223945C5.58988 0.217002 6.64241 0.643551 7.42342 1.41046C8.20442 2.17736 8.65047 3.22232 8.66415 4.31717V48.261C8.61551 49.3242 8.15919 50.3277 7.39007 51.0629C6.62095 51.7981 5.59823 52.2083 4.53457 52.2083C3.47092 52.2083 2.4482 51.7981 1.67908 51.0629C0.909961 50.3277 0.453636 49.3242 0.404999 48.261L0.404999 4.31717C0.414036 3.23438 0.847916 2.1985 1.61311 1.43282C2.37831 0.667141 3.41354 0.232988 4.49566 0.223945Z" fill="#555555"/>
<path d="M50.8509 33.8178V48.4081C50.8441 49.4534 50.4267 50.454 49.6889 51.194C48.951 51.9339 47.9519 52.3538 46.9073 52.3629C45.9962 52.341 45.119 52.0134 44.4163 51.4328C43.7137 50.8521 43.2264 50.052 43.0328 49.161C40.1503 51.2429 36.6855 52.3632 33.1305 52.3629C30.7639 52.3754 28.4199 51.9019 26.2436 50.9716C24.0673 50.0413 22.1049 48.6739 20.478 46.9543C17.1843 43.3919 15.3746 38.7053 15.4187 33.8525C15.3475 28.9921 17.1608 24.2931 20.478 20.742C23.2778 17.6226 27.1361 15.6553 31.3039 15.2219C35.4717 14.7886 39.6518 15.9201 43.0328 18.3968C43.2095 17.4907 43.6897 16.672 44.3941 16.0757C45.0985 15.4795 45.985 15.1413 46.9073 15.1171C47.9624 15.1308 48.9693 15.5616 49.7082 16.3155C50.447 17.0694 50.8578 18.0852 50.8509 19.1411V33.8178ZM42.955 33.8178C43.0063 30.9955 41.9687 28.2618 40.0578 26.1852C39.1859 25.2155 38.1185 24.4419 36.9259 23.9153C35.7333 23.3888 34.4426 23.1212 33.1391 23.1304C31.8332 23.1053 30.5376 23.3657 29.3426 23.8933C28.1477 24.4209 27.0821 25.2031 26.2204 26.1852C24.3163 28.2787 23.3019 31.0319 23.3924 33.8611C23.3327 36.6827 24.3431 39.4222 26.2204 41.5283C27.1114 42.4637 28.1858 43.2047 29.3763 43.7051C30.5669 44.2054 31.8479 44.4543 33.1391 44.436C34.4281 44.4391 35.7046 44.1834 36.893 43.6839C38.0814 43.1845 39.1576 42.4515 40.0578 41.5283C41.963 39.4171 42.9982 36.6621 42.955 33.8178Z" fill="#555555"/>
<path d="M90.0621 30.616V48.4081C90.0678 48.9218 89.9723 49.4316 89.7812 49.9083C89.59 50.3851 89.3068 50.8195 88.9478 51.1867C88.5888 51.5539 88.1611 51.8468 87.689 52.0486C87.2169 52.2504 86.7097 52.3572 86.1963 52.3629C85.1543 52.3429 84.1606 51.9199 83.4237 51.1825C82.6868 50.4451 82.264 49.4507 82.244 48.4081V30.616C82.2121 28.5916 81.3795 26.6624 79.9287 25.2512C78.4778 23.8399 76.527 23.0618 74.5038 23.0872C73.5197 23.0871 72.5455 23.2825 71.6374 23.6619C70.7294 24.0413 69.9056 24.5972 69.2138 25.2975C68.522 25.9978 67.976 26.8284 67.6073 27.7414C67.2387 28.6543 67.0548 29.6314 67.0662 30.616V48.4081C67.0828 48.6685 67.029 48.9286 66.9105 49.161C66.7127 50.0627 66.2149 50.8705 65.4984 51.4522C64.782 52.0339 63.8895 52.3549 62.9669 52.3629C62.4476 52.3652 61.9331 52.2644 61.453 52.0663C60.973 51.8683 60.5369 51.577 60.1701 51.2091C59.8034 50.8413 59.5131 50.4044 59.3163 49.9236C59.1194 49.4428 59.0198 48.9277 59.0233 48.4081V19.0632C59.021 18.5444 59.1214 18.0302 59.3188 17.5504C59.5162 17.0706 59.8066 16.6347 60.1732 16.2678C60.5399 15.9009 60.9755 15.6103 61.455 15.4128C61.9345 15.2153 62.4484 15.1148 62.9669 15.1171C63.7316 15.1161 64.4809 15.3328 65.1271 15.7419C65.7734 16.1511 66.2899 16.7357 66.6165 17.4277C68.9772 15.9329 71.7102 15.1323 74.5038 15.1171C78.6174 15.1193 82.563 16.7508 85.4783 19.6549C88.3936 22.5591 90.0415 26.4998 90.0621 30.616Z" fill="#555555"/>
<path d="M97.3269 33.74C97.3961 23.6151 105.292 15.1171 115.488 15.1171C125.157 15.1171 132.828 22.343 133.425 32.4246V32.7967C133.437 33.0245 133.411 33.2527 133.347 33.4717C133.122 35.2544 131.566 36.4486 129.481 36.4486H105.811C106.16 38.2967 107.038 40.004 108.336 41.3639C110.253 43.2861 112.785 44.4717 115.488 44.7129C118.161 44.9379 121.369 44.2716 123.272 42.8524C124.829 41.2168 127.881 41.4332 128.85 42.6274C129.819 43.6745 130.58 45.9071 128.85 47.4735C125.223 50.7896 120.442 52.5538 115.532 52.3888C110.651 52.3159 105.998 50.3139 102.587 46.82C99.1761 43.3261 97.2852 38.6239 97.3269 33.74ZM105.439 30.0881H126.498C125.754 27.1112 121.957 22.7151 115.488 22.1958C109.158 22.4901 106.036 27.0506 105.439 30.0881Z" fill="#555555"/>
<path d="M169.048 21.0795L156.81 49.9744C156.751 50.1668 156.651 50.344 156.516 50.4936C156.516 50.5143 156.508 50.5341 156.493 50.5487C156.479 50.5633 156.459 50.5715 156.438 50.5715C156.291 50.7186 156.144 50.9436 155.997 51.0907C155.997 51.1009 155.995 51.1111 155.991 51.1205C155.987 51.13 155.982 51.1385 155.974 51.1458C155.967 51.153 155.959 51.1587 155.949 51.1627C155.94 51.1666 155.93 51.1686 155.919 51.1686C155.79 51.3351 155.642 51.4861 155.478 51.6186C155.478 51.6186 155.4 51.6186 155.4 51.6878C155.26 51.8521 155.082 51.9798 154.882 52.0599H154.726V52.1465C154.521 52.1499 154.32 52.2002 154.138 52.2936H153.982C153.739 52.3545 153.489 52.3807 153.238 52.3715C153.014 52.3765 152.79 52.3503 152.572 52.2936H152.425C152.237 52.2082 152.035 52.1583 151.829 52.1465V52.0599H151.682C151.45 51.9496 151.224 51.8253 151.007 51.6878C151.007 51.6787 151.005 51.6697 151.002 51.6613C150.998 51.6529 150.993 51.6453 150.987 51.6389C150.98 51.6324 150.973 51.6273 150.964 51.6239C150.956 51.6204 150.947 51.6186 150.938 51.6186C150.769 51.4887 150.618 51.3375 150.488 51.1686C150.41 51.1686 150.41 51.1686 150.341 51.0907C150.241 50.902 150.116 50.7274 149.969 50.5715C149.891 50.5715 149.891 50.5715 149.891 50.4936C149.744 50.4244 149.667 50.1994 149.597 49.9744L137.533 21.0795C137.326 20.607 137.217 20.0971 137.215 19.5811C137.212 19.0651 137.315 18.5541 137.518 18.0796C137.721 17.6051 138.018 17.1773 138.393 16.8225C138.767 16.4677 139.211 16.1936 139.695 16.017C141.477 15.1516 143.786 16.1641 144.685 18.1718L153.238 38.4303L161.887 18.1718C162.077 17.7013 162.359 17.2731 162.715 16.9115C163.071 16.5498 163.495 16.262 163.963 16.0643C164.43 15.8666 164.932 15.763 165.439 15.7593C165.947 15.7557 166.45 15.8521 166.92 16.043C167.39 16.2339 167.818 16.5156 168.18 16.8721C168.541 17.2285 168.829 17.6527 169.026 18.1203C169.224 18.588 169.327 19.0901 169.331 19.5978C169.335 20.1055 169.238 20.609 169.048 21.0795Z" fill="#555555"/>
<path d="M197.345 41.7102C197.664 41.2925 198.065 40.9443 198.524 40.6866C198.982 40.4289 199.488 40.2673 200.01 40.2114C200.533 40.1555 201.061 40.2067 201.564 40.3617C202.066 40.5167 202.531 40.7723 202.932 41.113C204.86 42.7486 208.216 44.4621 211.113 44.3928C212.899 44.3832 214.649 43.893 216.181 42.9736C216.548 42.7197 216.854 42.388 217.078 42.0021C217.303 41.6162 217.439 41.1856 217.478 40.7409C217.496 40.4751 217.42 40.2113 217.262 39.9967C217.184 39.7717 216.89 39.4775 216.293 39.1313C214.452 38.0763 212.432 37.3693 210.335 37.0458H210.265C208.038 36.6557 205.864 36.0051 203.788 35.1073C201.713 34.161 199.937 32.6647 198.651 30.7805C197.809 29.362 197.372 27.7397 197.388 26.0901C197.439 24.4777 197.863 22.8989 198.625 21.4773C199.387 20.0556 200.467 18.8296 201.781 17.895C204.478 16.0615 207.671 15.0982 210.931 15.1345C216.068 15.1345 219.718 17.5921 222.096 19.2364C222.96 19.8296 223.565 20.7307 223.787 21.7554C224.009 22.7802 223.831 23.851 223.29 24.7488C222.998 25.1811 222.623 25.5512 222.188 25.8377C221.752 26.1242 221.264 26.3215 220.752 26.418C220.24 26.5146 219.713 26.5086 219.203 26.4003C218.693 26.292 218.21 26.0837 217.781 25.7872C215.403 24.2209 213.318 23.0354 210.931 23.0354C209.341 23.0038 207.781 23.4697 206.469 24.368C206.145 24.5392 205.868 24.7859 205.66 25.0872C205.453 25.3885 205.321 25.7355 205.275 26.0988C205.26 26.2017 205.265 26.3067 205.29 26.4077C205.315 26.5087 205.36 26.6037 205.422 26.6872C205.632 27.0145 205.933 27.2732 206.287 27.4315C207.968 28.3679 209.811 28.9758 211.718 29.2228L211.796 29.3007H211.865C214.258 29.7023 216.586 30.4272 218.784 31.4555C220.95 32.3507 222.793 33.8839 224.068 35.8516C224.971 37.3335 225.458 39.0315 225.478 40.7669C225.444 42.4791 225.001 44.1582 224.185 45.6638C223.37 47.1694 222.206 48.4576 220.79 49.4207C217.946 51.3829 214.568 52.4249 211.113 52.4062C206.245 52.2301 201.578 50.4194 197.864 47.2659C197.067 46.5927 196.566 45.6333 196.469 44.5942C196.372 43.5551 196.686 42.5194 197.345 41.7102Z" fill="#555555"/>
<path d="M255.367 46.9543C252.003 43.4306 250.158 38.725 250.229 33.8525C250.241 29.0135 252.075 24.3567 255.367 20.8113C256.994 19.0326 258.973 17.6112 261.177 16.637C263.382 15.6628 265.765 15.157 268.175 15.1517C270.529 15.1429 272.858 15.6406 275.004 16.6111C277.15 17.5816 279.062 19.0022 280.611 20.7766C283.974 24.2801 285.837 28.9599 285.8 33.8179C285.864 36.2443 285.437 38.6587 284.546 40.9161C283.654 43.1735 282.316 45.2273 280.611 46.9543C279.066 48.7339 277.157 50.1604 275.013 51.1369C272.868 52.1133 270.539 52.6171 268.183 52.6138C265.772 52.6113 263.387 52.1068 261.18 51.1325C258.974 50.1582 256.994 48.7353 255.367 46.9543ZM258.35 33.8525C258.273 36.7178 259.221 39.5166 261.023 41.7447C262.954 43.5647 265.522 44.553 268.175 44.4966C270.727 44.511 273.183 43.5229 275.016 41.7447C276.954 39.5804 277.993 36.7576 277.921 33.8525C277.98 30.9937 276.94 28.2214 275.016 26.1074C273.156 24.3598 270.724 23.3507 268.175 23.2689C265.524 23.3078 262.979 24.3176 261.023 26.1074C259.241 28.2759 258.293 31.0109 258.35 33.8179V33.8525Z" fill="#555555"/>
<path d="M322.893 30.616V48.4081C322.899 48.9225 322.803 49.433 322.611 49.9103C322.419 50.3876 322.135 50.8224 321.776 51.1897C321.416 51.5571 320.987 51.8498 320.514 52.0511C320.041 52.2524 319.532 52.3584 319.018 52.3629C317.977 52.3429 316.984 51.9195 316.249 51.1819C315.513 50.4443 315.092 49.45 315.075 48.4081V30.616C315.059 29.6099 314.845 28.6167 314.445 27.6935C314.045 26.7702 313.467 25.935 312.744 25.2357C312.021 24.5363 311.167 23.9865 310.232 23.6179C309.296 23.2492 308.297 23.0689 307.291 23.0872C306.306 23.086 305.331 23.2805 304.422 23.6594C303.513 24.0383 302.688 24.594 301.996 25.2944C301.303 25.9948 300.756 26.8259 300.387 27.7394C300.018 28.6529 299.834 29.6307 299.845 30.616V48.4081C299.861 48.6675 299.81 48.9267 299.698 49.161C299.5 50.0627 299.002 50.8705 298.286 51.4522C297.569 52.0339 296.677 52.3549 295.754 52.3629C295.239 52.3595 294.729 52.2545 294.254 52.0539C293.779 51.8533 293.348 51.5611 292.986 51.1938C292.623 50.8266 292.337 50.3916 292.143 49.9136C291.949 49.4356 291.851 48.9241 291.854 48.4081V19.0632C291.852 18.5444 291.952 18.0302 292.149 17.5504C292.347 17.0706 292.637 16.6347 293.004 16.2678C293.371 15.9009 293.806 15.6103 294.286 15.4128C294.765 15.2153 295.279 15.1148 295.798 15.1171C296.562 15.1171 297.311 15.3342 297.957 15.7433C298.603 16.1523 299.12 16.7364 299.447 17.4277C301.807 15.9316 304.541 15.1309 307.334 15.1171C311.448 15.1193 315.394 16.7508 318.309 19.6549C321.224 22.5591 322.872 26.4998 322.893 30.616Z" fill="#555555"/>
<path d="M185.531 6.56723H180.8C179.497 6.56723 178.439 7.62495 178.439 8.92971C178.439 10.2345 179.497 11.2922 180.8 11.2922H185.531C186.835 11.2922 187.892 10.2345 187.892 8.92971C187.892 7.62495 186.835 6.56723 185.531 6.56723Z" fill="#F05127"/>
<path d="M185.531 1.16722H180.8C179.497 1.16722 178.439 2.22494 178.439 3.5297C178.439 4.83446 179.497 5.89217 180.8 5.89217H185.531C186.835 5.89217 187.892 4.83446 187.892 3.5297C187.892 2.22494 186.835 1.16722 185.531 1.16722Z" fill="#F05127"/>
<path d="M185.531 47.9839H180.8C179.497 47.9839 178.439 49.0417 178.439 50.3464C178.439 51.6512 179.497 52.7089 180.8 52.7089H185.531C186.835 52.7089 187.892 51.6512 187.892 50.3464C187.892 49.0417 186.835 47.9839 185.531 47.9839Z" fill="#555555"/>
<path d="M185.531 15.5844H180.8C179.497 15.5844 178.439 16.6421 178.439 17.9468C178.439 19.2516 179.497 20.3093 180.8 20.3093H185.531C186.835 20.3093 187.892 19.2516 187.892 17.9468C187.892 16.6421 186.835 15.5844 185.531 15.5844Z" fill="#555555"/>
<path d="M185.531 20.9843H180.8C179.497 20.9843 178.439 22.042 178.439 23.3467C178.439 24.6515 179.497 25.7092 180.8 25.7092H185.531C186.835 25.7092 187.892 24.6515 187.892 23.3467C187.892 22.042 186.835 20.9843 185.531 20.9843Z" fill="#555555"/>
<path d="M185.531 26.3842H180.8C179.497 26.3842 178.439 27.442 178.439 28.7467C178.439 30.0515 179.497 31.1092 180.8 31.1092H185.531C186.835 31.1092 187.892 30.0515 187.892 28.7467C187.892 27.442 186.835 26.3842 185.531 26.3842Z" fill="#555555"/>
<path d="M185.531 31.7841H180.8C179.497 31.7841 178.439 32.8418 178.439 34.1465C178.439 35.4513 179.497 36.509 180.8 36.509H185.531C186.835 36.509 187.892 35.4513 187.892 34.1465C187.892 32.8418 186.835 31.7841 185.531 31.7841Z" fill="#555555"/>
<path d="M185.531 37.1842H180.8C179.497 37.1842 178.439 38.2419 178.439 39.5466C178.439 40.8514 179.497 41.9091 180.8 41.9091H185.531C186.835 41.9091 187.892 40.8514 187.892 39.5466C187.892 38.2419 186.835 37.1842 185.531 37.1842Z" fill="#555555"/>
<path d="M185.531 42.5841H180.8C179.497 42.5841 178.439 43.6418 178.439 44.9466C178.439 46.2513 179.497 47.309 180.8 47.309H185.531C186.835 47.309 187.892 46.2513 187.892 44.9466C187.892 43.6418 186.835 42.5841 185.531 42.5841Z" fill="#555555"/>
<path d="M240.777 6.56723H236.046C234.742 6.56723 233.685 7.62495 233.685 8.92971C233.685 10.2345 234.742 11.2922 236.046 11.2922H240.777C242.081 11.2922 243.138 10.2345 243.138 8.92971C243.138 7.62495 242.081 6.56723 240.777 6.56723Z" fill="#F05127"/>
<path d="M240.777 1.16722H236.046C234.742 1.16722 233.685 2.22494 233.685 3.5297C233.685 4.83446 234.742 5.89217 236.046 5.89217H240.777C242.081 5.89217 243.138 4.83446 243.138 3.5297C243.138 2.22494 242.081 1.16722 240.777 1.16722Z" fill="#F05127"/>
<path d="M240.777 47.984H236.046C234.742 47.984 233.685 49.0417 233.685 50.3465C233.685 51.6512 234.742 52.7089 236.046 52.7089H240.777C242.081 52.7089 243.138 51.6512 243.138 50.3465C243.138 49.0417 242.081 47.984 240.777 47.984Z" fill="#555555"/>
<path d="M240.777 15.5844H236.046C234.742 15.5844 233.685 16.6421 233.685 17.9469C233.685 19.2516 234.742 20.3093 236.046 20.3093H240.777C242.081 20.3093 243.138 19.2516 243.138 17.9469C243.138 16.6421 242.081 15.5844 240.777 15.5844Z" fill="#555555"/>
<path d="M240.777 20.9843H236.046C234.742 20.9843 233.685 22.042 233.685 23.3468C233.685 24.6515 234.742 25.7092 236.046 25.7092H240.777C242.081 25.7092 243.138 24.6515 243.138 23.3468C243.138 22.042 242.081 20.9843 240.777 20.9843Z" fill="#555555"/>
<path d="M240.777 26.3843H236.046C234.742 26.3843 233.685 27.442 233.685 28.7467C233.685 30.0515 234.742 31.1092 236.046 31.1092H240.777C242.081 31.1092 243.138 30.0515 243.138 28.7467C243.138 27.442 242.081 26.3843 240.777 26.3843Z" fill="#555555"/>
<path d="M240.777 31.7841H236.046C234.742 31.7841 233.685 32.8418 233.685 34.1466C233.685 35.4513 234.742 36.509 236.046 36.509H240.777C242.081 36.509 243.138 35.4513 243.138 34.1466C243.138 32.8418 242.081 31.7841 240.777 31.7841Z" fill="#555555"/>
<path d="M240.777 37.1842H236.046C234.742 37.1842 233.685 38.2419 233.685 39.5467C233.685 40.8514 234.742 41.9092 236.046 41.9092H240.777C242.081 41.9092 243.138 40.8514 243.138 39.5467C243.138 38.2419 242.081 37.1842 240.777 37.1842Z" fill="#555555"/>
<path d="M240.777 42.5841H236.046C234.742 42.5841 233.685 43.6418 233.685 44.9466C233.685 46.2514 234.742 47.3091 236.046 47.3091H240.777C242.081 47.3091 243.138 46.2514 243.138 44.9466C243.138 43.6418 242.081 42.5841 240.777 42.5841Z" fill="#555555"/>
</svg>
